<?xml version="1.0" encoding="UTF-8"?>
<svg xmlns="http://www.w3.org/2000/svg" xmlns:xlink="http://www.w3.org/1999/xlink" width="638.04pt" height="147.6pt" viewBox="0 0 638.04 147.6" version="1.1">
<defs>
<clipPath id="clip1">
  <path d="M 0 0 L 47 0 L 47 147.601563 L 0 147.601563 Z M 0 0 "/>
</clipPath>
<clipPath id="clip2">
  <path d="M 147 60 L 195 60 L 195 147.601563 L 147 147.601563 Z M 147 60 "/>
</clipPath>
<clipPath id="clip3">
  <path d="M 295 4 L 343 4 L 343 147.601563 L 295 147.601563 Z M 295 4 "/>
</clipPath>
<clipPath id="clip4">
  <path d="M 443 60 L 491 60 L 491 147.601563 L 443 147.601563 Z M 443 60 "/>
</clipPath>
<clipPath id="clip5">
  <path d="M 591 60 L 638.039063 60 L 638.039063 147.601563 L 591 147.601563 Z M 591 60 "/>
</clipPath>
</defs>
<g id="surface1">
<g clip-path="url(#clip1)" clip-rule="nonzero">
<path style=" stroke:none;fill-rule:nonzero;fill:rgb(0%,0%,0%);fill-opacity:1;" d="M 13.921875 60.058594 L 32.351563 60.058594 L 32.351563 13.839844 L 13.921875 13.839844 Z M 0 147.601563 L 0 -0.00390625 L 32.894531 -0.00390625 C 41.765625 -0.00390625 46.207031 4.609375 46.207031 13.839844 L 46.207031 60.058594 C 46.207031 69.265625 41.570313 73.902344 32.335938 73.902344 L 13.921875 73.902344 L 13.921875 147.601563 "/>
</g>
<g clip-path="url(#clip2)" clip-rule="nonzero">
<path style=" stroke:none;fill-rule:nonzero;fill:rgb(0%,0%,0%);fill-opacity:1;" d="M 180.289063 73.902344 L 161.875 73.902344 L 161.875 96.796875 L 180.289063 96.796875 Z M 180.289063 133.742188 L 180.289063 120.109375 L 194.195313 120.109375 L 194.195313 133.742188 C 194.195313 142.9375 189.519531 147.601563 180.289063 147.601563 L 161.875 147.601563 C 152.601563 147.601563 147.953125 142.9375 147.953125 133.742188 L 147.953125 73.902344 C 147.953125 64.683594 152.382813 60.058594 161.277344 60.058594 L 180.847656 60.058594 C 189.714844 60.058594 194.195313 64.683594 194.195313 73.902344 L 194.195313 97.082031 C 194.195313 106.109375 189.519531 110.640625 180.289063 110.640625 L 161.875 110.640625 L 161.875 133.742188 "/>
</g>
<g clip-path="url(#clip3)" clip-rule="nonzero">
<path style=" stroke:none;fill-rule:nonzero;fill:rgb(0%,0%,0%);fill-opacity:1;" d="M 328.253906 73.902344 L 309.8125 73.902344 L 309.8125 133.742188 L 328.253906 133.742188 Z M 342.148438 4.753906 L 342.148438 147.585938 L 309.226563 147.585938 C 300.359375 147.585938 295.941406 142.9375 295.941406 133.742188 L 295.941406 73.902344 C 295.941406 64.683594 300.554688 60.058594 309.8125 60.058594 L 328.253906 60.058594 L 328.253906 4.753906 "/>
</g>
<g clip-path="url(#clip4)" clip-rule="nonzero">
<path style=" stroke:none;fill-rule:nonzero;fill:rgb(0%,0%,0%);fill-opacity:1;" d="M 443.878906 147.59375 L 443.878906 73.910156 C 443.878906 64.675781 448.308594 60.066406 457.230469 60.066406 L 476.824219 60.066406 C 485.65625 60.066406 490.109375 64.675781 490.109375 73.910156 L 490.109375 87.53125 L 476.203125 87.53125 L 476.203125 73.910156 L 457.789063 73.910156 L 457.789063 147.59375 "/>
</g>
<g clip-path="url(#clip5)" clip-rule="nonzero">
<path style=" stroke:none;fill-rule:nonzero;fill:rgb(0%,0%,0%);fill-opacity:1;" d="M 624.183594 73.902344 L 605.742188 73.902344 L 605.742188 133.742188 L 624.183594 133.742188 Z M 591.898438 73.902344 C 591.898438 64.683594 596.316406 60.058594 605.183594 60.058594 L 624.765625 60.058594 C 633.636719 60.058594 638.039063 64.683594 638.039063 73.902344 L 638.039063 133.742188 C 638.039063 142.9375 633.441406 147.601563 624.183594 147.601563 L 605.730469 147.601563 C 596.484375 147.601563 591.898438 142.9375 591.898438 133.742188 "/>
</g>
</g>
</svg>
